<svg xmlns="http://www.w3.org/2000/svg" width="32" height="32" viewBox="0 0 32 32"><g transform="translate(-195 -1616.362)"><rect width="11" height="26" x="205" y="1620.362" fill="#34485c"/><circle cx="210.5" cy="1625.862" r="2.5" fill="#f05542"/><path fill="#2b4255" d="m 207,1618.3622 7,0 0,2 -7,0 z"/><circle cx="210.5" cy="1633.862" r="2.5" fill="#f8b84e"/><circle cx="210.5" cy="1641.862" r="2.5" fill="#25b39e"/><path fill="#2b4255" fill-rule="evenodd" d="M200 1623.3681l0 1.9941a3 3 0 0 1 3 2.998l2 0 0-4.9921-5 0zM200 1631.3622l0 1.9941a3 3 0 0 1 3 2.9981l2 0 0-4.9922-5 0zM200 1639.3622l0 1.9941a3 3 0 0 1 3 2.9981l2 0 0-4.9922-5 0zM221 1623.3681l0 1.9941a3 3 0 0 0-3 2.998l-2 0 0-4.9921 5 0zM221 1631.3622l0 1.9941a3 3 0 0 0-3 2.9981l-2 0 0-4.9922 5 0zM221 1639.3622l0 1.9941a3 3 0 0 0-3 2.9981l-2 0 0-4.9922 5 0z"/></g></svg>